<svg xmlns="http://www.w3.org/2000/svg" xmlns:xlink="http://www.w3.org/1999/xlink" width="500" zoomAndPan="magnify" viewBox="0 0 375 374.999991" height="500" preserveAspectRatio="xMidYMid meet" version="1.0"><defs><g/><clipPath id="cd29fad928"><path d="M 112.5 130 L 262.5 130 L 262.5 258.847656 L 112.5 258.847656 Z M 112.5 130 " clip-rule="nonzero"/></clipPath></defs><rect x="-37.5" width="450" fill="#ffffff" y="-37.499999" height="449.999989" fill-opacity="1"/><rect x="-37.5" width="450" fill="#ffffff" y="-37.499999" height="449.999989" fill-opacity="1"/><g clip-path="url(#cd29fad928)"><path fill="#000000" d="M 262.265625 161.183594 C 262.265625 160.246094 261.796875 159.542969 261.097656 159.078125 L 212.65625 130.953125 C 211.953125 130.484375 211.019531 130.484375 210.316406 130.953125 L 187.382812 144.3125 L 164.449219 130.953125 C 163.75 130.484375 162.8125 130.484375 162.109375 130.953125 L 113.671875 159.078125 C 112.96875 159.542969 112.5 160.246094 112.5 161.183594 C 112.5 162.121094 112.96875 162.824219 113.671875 163.292969 L 134.261719 175.480469 L 113.671875 187.433594 C 112.96875 187.667969 112.5 188.371094 112.5 189.308594 C 112.5 190.246094 112.96875 190.949219 113.671875 191.417969 L 138.242188 205.710938 L 138.242188 227.976562 C 138.242188 228.914062 138.710938 229.617188 139.410156 230.085938 L 186.214844 257.972656 C 186.445312 257.972656 186.445312 258.207031 186.679688 258.207031 L 188.320312 258.207031 C 188.554688 258.207031 188.785156 257.972656 188.785156 257.972656 L 237.929688 229.851562 C 238.632812 229.382812 239.097656 228.679688 239.097656 227.742188 L 239.097656 204.304688 L 261.328125 191.417969 C 262.03125 190.949219 262.5 190.246094 262.5 189.308594 C 262.5 188.371094 262.03125 187.667969 261.328125 187.199219 L 240.738281 175.246094 L 261.328125 163.058594 C 261.796875 162.589844 262.265625 161.886719 262.265625 161.183594 Z M 142.921875 208.289062 L 162.109375 219.539062 C 162.578125 219.773438 162.8125 219.773438 163.28125 219.773438 C 163.75 219.773438 163.980469 219.773438 164.449219 219.539062 L 185.042969 207.351562 L 185.042969 251.644531 L 142.921875 226.570312 Z M 234.183594 226.570312 L 189.722656 251.878906 L 189.722656 207.351562 L 210.316406 219.539062 C 210.785156 219.773438 211.019531 219.773438 211.484375 219.773438 C 211.953125 219.773438 212.1875 219.773438 212.65625 219.539062 L 234.183594 207.117188 Z M 235.824219 172.433594 L 198.617188 150.640625 C 197.445312 149.9375 196.042969 150.40625 195.339844 151.578125 C 194.636719 152.75 195.105469 154.15625 196.273438 154.859375 L 234.652344 177.355469 L 255.246094 189.308594 L 211.484375 214.851562 L 192.0625 203.367188 L 228.570312 182.277344 C 229.738281 181.574219 229.972656 180.167969 229.503906 178.996094 C 228.800781 177.824219 227.398438 177.589844 226.230469 178.058594 L 186.214844 201.257812 L 163.28125 214.617188 L 142.6875 202.664062 C 142.21875 201.960938 141.515625 201.492188 140.582031 201.492188 L 119.519531 189.308594 L 138.941406 178.058594 L 176.617188 200.085938 C 177.789062 200.789062 179.191406 200.320312 179.894531 199.148438 C 180.597656 197.976562 180.128906 196.570312 178.957031 195.871094 L 140.113281 173.371094 L 119.519531 161.183594 L 163.28125 135.640625 L 182.703125 146.890625 L 148.539062 166.808594 C 147.367188 167.511719 147.132812 168.917969 147.601562 170.089844 C 148.304688 171.261719 149.707031 171.496094 150.878906 171.027344 L 185.042969 151.109375 L 185.042969 192.121094 C 185.042969 193.527344 185.980469 194.464844 187.382812 194.464844 C 188.785156 194.464844 189.722656 193.527344 189.722656 192.121094 L 189.722656 148.296875 L 211.484375 135.640625 L 255.246094 161.183594 Z M 235.824219 172.433594 " fill-opacity="1" fill-rule="nonzero"/></g><g fill="#000000" fill-opacity="1"><g transform="translate(116.020214, 109.555334)"><g><path d="M 0.53125 -9.453125 C 0.53125 -12.191406 1.457031 -14.503906 3.3125 -16.390625 C 5.175781 -18.285156 7.425781 -19.234375 10.0625 -19.234375 C 12.695312 -19.234375 14.9375 -18.289062 16.78125 -16.40625 C 18.632812 -14.519531 19.5625 -12.203125 19.5625 -9.453125 C 19.5625 -6.691406 18.648438 -4.367188 16.828125 -2.484375 C 15.015625 -0.597656 12.757812 0.34375 10.0625 0.34375 C 7.289062 0.34375 5.007812 -0.585938 3.21875 -2.453125 C 1.425781 -4.328125 0.53125 -6.660156 0.53125 -9.453125 Z M 5.171875 -9.453125 C 5.171875 -8.460938 5.320312 -7.554688 5.625 -6.734375 C 5.9375 -5.921875 6.472656 -5.234375 7.234375 -4.671875 C 8.003906 -4.109375 8.945312 -3.828125 10.0625 -3.828125 C 11.664062 -3.828125 12.875 -4.375 13.6875 -5.46875 C 14.5 -6.570312 14.90625 -7.898438 14.90625 -9.453125 C 14.90625 -11.003906 14.488281 -12.332031 13.65625 -13.4375 C 12.832031 -14.539062 11.632812 -15.09375 10.0625 -15.09375 C 8.5 -15.09375 7.289062 -14.539062 6.4375 -13.4375 C 5.59375 -12.332031 5.171875 -11.003906 5.171875 -9.453125 Z M 5.171875 -9.453125 "/></g></g></g><g fill="#000000" fill-opacity="1"><g transform="translate(138.392752, 109.555334)"><g><path d="M 1.375 -18.890625 L 8.265625 -18.890625 C 10.191406 -18.890625 11.75 -18.394531 12.9375 -17.40625 C 14.132812 -16.414062 14.734375 -14.972656 14.734375 -13.078125 C 14.734375 -11.179688 14.128906 -9.695312 12.921875 -8.625 C 11.710938 -7.550781 10.160156 -7.015625 8.265625 -7.015625 L 5.6875 -7.015625 L 5.6875 0 L 1.375 0 Z M 5.6875 -10.4375 L 6.890625 -10.4375 C 7.859375 -10.4375 8.648438 -10.628906 9.265625 -11.015625 C 9.878906 -11.410156 10.1875 -12.050781 10.1875 -12.9375 C 10.1875 -13.84375 9.878906 -14.488281 9.265625 -14.875 C 8.648438 -15.269531 7.859375 -15.46875 6.890625 -15.46875 L 5.6875 -15.46875 Z M 5.6875 -10.4375 "/></g></g></g><g fill="#000000" fill-opacity="1"><g transform="translate(155.933733, 109.555334)"><g><path d="M 12.1875 -18.890625 L 12.1875 -15.125 L 5.6875 -15.125 L 5.6875 -11.359375 L 11.90625 -11.359375 L 11.90625 -7.578125 L 5.6875 -7.578125 L 5.6875 -3.78125 L 12.1875 -3.78125 L 12.1875 0 L 1.375 0 L 1.375 -18.890625 Z M 12.1875 -18.890625 "/></g></g></g><g fill="#000000" fill-opacity="1"><g transform="translate(171.505458, 109.555334)"><g><path d="M 5.6875 -11.734375 L 5.6875 0 L 1.375 0 L 1.375 -18.890625 L 5.6875 -18.890625 L 13.1875 -7.171875 L 13.234375 -7.171875 L 13.234375 -18.890625 L 17.546875 -18.890625 L 17.546875 0 L 13.234375 0 L 5.734375 -11.734375 Z M 5.6875 -11.734375 "/></g></g></g><g fill="#000000" fill-opacity="1"><g transform="translate(192.710186, 109.555334)"><g/></g></g><g fill="#000000" fill-opacity="1"><g transform="translate(201.252107, 109.555334)"><g><path d="M 1.375 -18.890625 L 7.234375 -18.890625 C 9.003906 -18.890625 10.414062 -18.507812 11.46875 -17.75 C 12.53125 -17 13.0625 -15.78125 13.0625 -14.09375 C 13.0625 -12.195312 12.273438 -10.84375 10.703125 -10.03125 C 13.390625 -9.5625 14.734375 -7.972656 14.734375 -5.265625 C 14.734375 -3.679688 14.179688 -2.40625 13.078125 -1.4375 C 11.984375 -0.476562 10.472656 0 8.546875 0 L 1.375 0 Z M 5.6875 -11.5 L 6.03125 -11.5 C 6.988281 -11.5 7.703125 -11.664062 8.171875 -12 C 8.648438 -12.332031 8.890625 -12.882812 8.890625 -13.65625 C 8.890625 -14.9375 7.9375 -15.578125 6.03125 -15.578125 L 5.6875 -15.578125 Z M 5.6875 -3.328125 L 7.03125 -3.328125 C 9.132812 -3.328125 10.1875 -4.023438 10.1875 -5.421875 C 10.1875 -6.265625 9.921875 -6.867188 9.390625 -7.234375 C 8.867188 -7.597656 8.082031 -7.78125 7.03125 -7.78125 L 5.6875 -7.78125 Z M 5.6875 -3.328125 "/></g></g></g><g fill="#000000" fill-opacity="1"><g transform="translate(218.793083, 109.555334)"><g><path d="M 0.53125 -9.453125 C 0.53125 -12.191406 1.457031 -14.503906 3.3125 -16.390625 C 5.175781 -18.285156 7.425781 -19.234375 10.0625 -19.234375 C 12.695312 -19.234375 14.9375 -18.289062 16.78125 -16.40625 C 18.632812 -14.519531 19.5625 -12.203125 19.5625 -9.453125 C 19.5625 -6.691406 18.648438 -4.367188 16.828125 -2.484375 C 15.015625 -0.597656 12.757812 0.34375 10.0625 0.34375 C 7.289062 0.34375 5.007812 -0.585938 3.21875 -2.453125 C 1.425781 -4.328125 0.53125 -6.660156 0.53125 -9.453125 Z M 5.171875 -9.453125 C 5.171875 -8.460938 5.320312 -7.554688 5.625 -6.734375 C 5.9375 -5.921875 6.472656 -5.234375 7.234375 -4.671875 C 8.003906 -4.109375 8.945312 -3.828125 10.0625 -3.828125 C 11.664062 -3.828125 12.875 -4.375 13.6875 -5.46875 C 14.5 -6.570312 14.90625 -7.898438 14.90625 -9.453125 C 14.90625 -11.003906 14.488281 -12.332031 13.65625 -13.4375 C 12.832031 -14.539062 11.632812 -15.09375 10.0625 -15.09375 C 8.5 -15.09375 7.289062 -14.539062 6.4375 -13.4375 C 5.59375 -12.332031 5.171875 -11.003906 5.171875 -9.453125 Z M 5.171875 -9.453125 "/></g></g></g><g fill="#000000" fill-opacity="1"><g transform="translate(241.165618, 109.555334)"><g><path d="M 19.0625 0 L 13.484375 0 L 9.03125 -6.4375 L 4.5625 0 L -0.78125 0 L 6.375 -10.171875 L 0.40625 -18.890625 L 5.546875 -18.890625 L 9.03125 -13.75 L 12.5 -18.890625 L 17.859375 -18.890625 L 11.6875 -10.171875 Z M 19.0625 0 "/></g></g></g></svg>